<svg class="logo" viewBox="0 0 61 26" fill="none" xmlns="http://www.w3.org/2000/svg"><path d="M34.5506 17.208C34.5506 18.584 34.2306 19.56 33.5906 20.136C32.9666 20.712 31.9266 21 30.4706 21H25.5266V4.2H30.1826C31.6226 4.2 32.7106 4.496 33.4466 5.088C34.1826 5.664 34.5506 6.616 34.5506 7.944V17.208ZM32.4626 7.728C32.4626 7.2 32.3026 6.784 31.9826 6.48C31.6626 6.16 31.2386 6 30.7106 6H27.6146V19.2H30.6866C31.2946 19.2 31.7426 19.064 32.0306 18.792C32.3186 18.504 32.4626 18.056 32.4626 17.448V7.728Z" class="logo-letter"/><path d="M47.0075 4.2V5.952H41.0795V11.448H46.4075V13.2H41.0795V19.248H47.0075V21H38.9915V4.2H47.0075Z" class="logo-letter"/><path d="M50.8245 4.2H52.9365L55.8165 18.888L58.9125 4.2H60.9765L57.2085 21H54.3525L50.8245 4.2Z" class="logo-letter"/><path d="M6.25899 14.9519C6.25899 14.9519 5.37907 15.7661 5.09281 16.5827C4.80654 17.3969 4.32318 19.3796 4.12373 19.5556C3.92428 19.7316 3.26493 20.039 3.02325 20.1492C2.78157 20.2595 2.25362 20.3698 2.25362 20.7429C2.25362 21.116 2.73698 21.1183 3.57466 20.9846C4.41234 20.8508 4.71973 20.8086 4.87459 20.6091C5.02945 20.4097 5.88825 17.2842 6.01965 17.0848C6.15105 16.8877 6.39508 16.3363 7.14359 15.7638C7.89211 15.1912 8.75091 14.4873 8.75091 14.4873L7.3407 13.6074L6.25899 14.9519Z" fill="#868686"/><path d="M1.90872 7.43154C1.90872 7.43154 1.6553 6.83789 0.939636 7.02326C0.310791 7.18751 -0.0294425 8.13547 0.14654 8.5766C0.322523 9.01773 0.817621 9.21483 0.817621 9.21483L1.90872 7.43154Z" fill="#151413"/><path d="M2.48122 0.647988C2.30523 0.66676 2.01897 1.8259 1.18129 1.66165C0.561832 1.53963 0.6815 0.671452 1.46756 0.242054C2.17149 -0.142761 2.62435 0.0097571 3.05375 0.164622C3.68729 0.392226 4.32082 1.08912 4.62821 1.90333C4.93559 2.71755 5.30164 3.74059 5.45415 4.94197C5.60902 6.16446 5.51985 6.20904 5.51985 6.20904L4.92621 6.25363C4.92621 6.25363 5.03649 5.94624 4.81592 4.61347C4.69156 3.86026 4.38653 2.9123 4.11199 2.21306C3.80226 1.4317 3.16403 0.572902 2.48122 0.647988Z" fill="#5D6265"/><path d="M7.49087 1.46455C7.32897 1.4364 6.91834 2.00423 6.34112 1.67104C5.8296 1.37539 6.07128 0.615142 6.83152 0.540056C7.31724 0.490781 7.92966 0.8404 8.23 1.14544C8.69225 1.61942 9.03483 2.40078 9.18735 3.19388C9.3469 4.01278 9.32813 4.78007 8.99025 5.89228C8.62655 7.08192 8.19715 7.57702 8.19715 7.57702L7.7349 7.10304C7.7349 7.10304 8.05402 6.66191 8.3966 5.7163C8.64532 5.02644 8.79315 4.26385 8.62889 3.36986C8.47403 2.54157 7.95312 1.54198 7.49087 1.46455Z" fill="#5D6265"/><path d="M2.53754 6.49531C1.33147 7.05846 -0.231255 8.88633 0.0479708 10.9887C0.268536 12.6406 1.4793 14.3582 3.814 14.8862C6.14871 15.4141 7.58004 14.6656 7.58004 14.6656L8.74621 14.4896L9.75988 15.8998L12.7774 15.921L14.7601 15.1067C14.7601 15.1067 16.1422 17.0731 16.5974 17.7653C17.0526 18.4598 18.5637 19.6823 18.5637 19.6823C18.5637 19.6823 18.972 19.9873 19.392 20.222C19.7885 20.4425 21.6939 21.367 23.4279 21.4492C26.4595 21.5946 27.3722 20.7499 27.5646 20.5082C27.6585 20.3886 27.7594 19.9169 27.7993 19.6659C27.8298 19.4688 28.1536 17.6033 27.9096 16.1415C27.7125 14.9519 27.0719 12.8377 24.6715 10.7236C22.2711 8.60945 19.0119 8.0815 16.9634 9.27115C15.0323 10.3927 14.3659 12.0235 14.3659 12.0235C14.3659 12.0235 13.7488 10.3904 12.0758 10.1745C10.7102 9.99854 10.1165 10.7025 10.1165 10.7025C10.1165 10.7025 10.2479 7.72954 7.25388 6.38503C5.06465 5.40657 3.19689 6.18793 2.53754 6.49531Z" fill="#5D6265"/><path d="M11.2358 10.679C10.5764 10.8573 10.3113 11.5824 10.553 12.0235C10.7947 12.4646 11.2522 12.6453 11.7637 12.5069C12.4254 12.3309 12.6882 11.7372 12.5334 11.2961C12.3808 10.8573 11.8083 10.5265 11.2358 10.679Z" fill="#AFAFAE"/><path d="M16.9165 11.7161C17.2239 12.3332 18.139 12.3497 18.9861 11.8264C19.9106 11.2539 19.9552 10.4397 19.6243 10.0431C19.1691 9.49639 18.2376 9.58086 17.665 9.95395C17.0925 10.327 16.5153 10.9113 16.9165 11.7161Z" fill="#AFAFAE"/><path d="M3.63801 8.53201C3.2884 9.12331 3.19454 10.1581 4.07914 10.5476C5.09281 10.9934 5.7193 10.266 5.9516 9.6888C6.17217 9.13739 6.20736 8.20116 5.42365 7.88204C4.6024 7.54885 3.98529 7.94774 3.63801 8.53201Z" fill="#0A0A0A"/><path d="M0.951355 11.4392C0.981858 11.749 0.951355 11.9461 0.775372 12.0657C0.557153 12.2159 0.383517 12.1408 0.383517 12.1408C0.383517 12.1408 0.0855192 11.8522 0.015126 11.2727C-0.0247634 10.9512 0.0268583 10.4796 0.0268583 10.4796C0.0268583 10.4796 0.89504 10.8785 0.951355 11.4392Z" fill="#44484E"/><path d="M9.3868 12.9597C9.53463 13.009 9.28825 14.4967 9.41965 14.7266C9.55105 14.9589 10.5272 15.5854 11.8646 15.4212C13.2021 15.2569 13.7981 14.4216 14.0116 13.9523C14.1477 13.6566 14.2768 13.1756 14.3753 13.1592C14.4739 13.1428 15.1684 14.2503 15.6471 14.8439C16.1258 15.4376 16.4238 15.9186 17.3811 16.8595C18.3385 17.8004 19.5774 18.5278 19.5774 18.5278C19.5774 18.5278 19.3193 18.854 19.1104 19.1121C18.8993 19.3702 18.6153 19.7175 18.6153 19.7175C18.6153 19.7175 17.1089 18.5771 16.3581 17.6127C15.626 16.6718 14.8563 15.7356 14.739 15.9538C14.6804 16.0617 15.1825 16.7516 15.3913 17.1341C15.6893 17.6784 16.0108 18.2087 16.1352 18.4973C16.2548 18.7766 16.7663 20.0859 17.0198 20.9423C17.184 21.5031 17.2896 22.1742 17.3342 22.2141C17.4585 22.322 18.2423 23.0893 18.4417 23.27C18.6388 23.4507 19.0025 23.8472 18.7397 24.1288C18.4746 24.4104 17.8973 23.988 17.7659 23.8895C17.6345 23.7909 16.3628 22.9556 16.2126 22.7749C16.0648 22.5942 15.8465 21.5641 15.7503 21.1723C15.6424 20.7335 15.0065 19.2224 14.908 18.9267C14.8094 18.6287 14.2134 17.594 14.0492 17.3664C13.7934 17.012 13.6034 16.5404 13.2068 16.6554C13.0097 16.714 12.8361 16.7469 12.6695 16.8196C12.6366 17.0355 12.6108 19.9498 12.5615 20.2149C12.5123 20.4801 12.3644 22.6271 12.3809 22.8242C12.3973 23.0213 13.3382 24.2602 13.4555 24.4104C13.5705 24.5582 13.6034 24.8562 13.4063 25.0204C13.2092 25.1847 12.6624 25.0861 12.5146 24.9712C12.3668 24.8562 11.3907 23.8801 11.3085 23.6008C11.2264 23.3193 11.2428 20.71 11.2428 20.2806C11.2428 19.8512 11.3414 16.9768 11.2757 16.8454C11.1771 16.829 11.0035 16.8454 10.4427 16.7305C10.1212 16.6648 9.85609 16.5076 9.75754 16.4982C9.70826 16.5897 8.84947 18.6452 8.68287 19.2576C8.51862 19.8677 7.82407 22.9251 7.74195 23.0729C7.65982 23.2207 6.99813 23.8238 6.27308 24.0631C5.89296 24.1874 4.73616 24.4761 4.50621 24.1781C4.27391 23.8801 5.15148 23.2864 5.61373 23.0377C6.07598 22.789 6.62035 22.4605 6.6884 22.3924C6.7541 22.3267 7.26562 19.3702 7.33367 19.0229C7.40172 18.6757 8.50689 16.05 8.49046 15.935C7.97894 15.4892 7.54954 14.6961 7.54954 14.6961C7.54954 14.6961 8.18543 14.4474 8.64767 14.018C9.01137 13.666 9.3868 12.9597 9.3868 12.9597Z" fill="#4D4D4D"/><path d="M20.3259 18.9995C20.3259 18.9995 20.0091 19.4265 19.8073 19.6776C19.5492 19.9967 19.3169 20.1891 19.3169 20.1891C19.3169 20.1891 20.4338 20.7359 21.1026 20.9752C22.1397 21.3436 22.7756 21.3835 22.7756 21.3835C22.7756 21.3835 23.0924 21.008 23.2918 20.7664C23.5569 20.4472 23.7752 20.1047 23.7752 20.1047C23.7752 20.1047 22.6489 19.9686 21.8581 19.6964C20.7975 19.335 20.3259 18.9995 20.3259 18.9995Z" fill="#4D4D4D"/><path d="M24.7536 20.2431C24.7536 20.2431 24.4556 20.6842 24.2468 20.9822C24.0825 21.2169 23.8385 21.4562 23.8385 21.4562C23.8385 21.4562 25.4364 21.5055 26.2905 21.2333C26.7598 21.0831 27.3347 20.8297 27.5435 20.5552C27.696 20.3581 27.8181 19.5321 27.8181 19.5321C27.8181 19.5321 27.3065 20.0929 26.2765 20.2032C25.5092 20.2877 24.7536 20.2431 24.7536 20.2431Z" fill="#4D4D4D"/><path d="M23.7775 20.1046C23.7775 20.1046 23.8831 20.1187 24.2304 20.1727C24.7067 20.2454 24.763 20.2337 24.763 20.2337C24.763 20.2337 25.826 18.441 26.3328 16.9229C26.856 15.3508 26.91 13.422 26.91 13.422C26.91 13.422 26.6284 12.9597 26.5181 12.7955C26.4079 12.6312 26.1333 12.2769 26.1333 12.2769C26.1333 12.2769 25.955 14.9917 25.4059 16.6929C24.7513 18.7249 23.7775 20.1046 23.7775 20.1046Z" fill="#838383"/><path d="M19.5774 18.5255C19.5774 18.5255 21.187 16.2096 21.7408 14.5788C21.9895 13.8467 22.3438 12.3732 22.4353 11.7467C22.6207 10.4585 22.501 9.32747 22.501 9.32747C22.501 9.32747 22.7427 9.41429 23.0384 9.5762C23.219 9.67475 23.4349 9.82492 23.4349 9.82492C23.4349 9.82492 23.5898 10.7189 23.3434 12.0705C23.1533 13.1193 22.8835 14.1611 22.5433 15.1255C22.0224 16.5944 20.3329 19.0065 20.3329 19.0065L19.5774 18.5255Z" fill="#838383"/></svg>
