<svg viewBox="0 0 28 26" fill="none" xmlns="http://www.w3.org/2000/svg">
<path d="M6.25899 15.1666C6.25899 15.1666 5.37907 15.9808 5.09281 16.7974C4.80654 17.6116 4.32318 19.5943 4.12373 19.7703C3.92428 19.9463 3.26493 20.2537 3.02325 20.364C2.78157 20.4742 2.25362 20.5845 2.25362 20.9576C2.25362 21.3307 2.73698 21.333 3.57466 21.1993C4.41234 21.0655 4.71973 21.0233 4.87459 20.8239C5.02945 20.6244 5.88825 17.499 6.01965 17.2995C6.15105 17.1024 6.39508 16.551 7.14359 15.9785C7.89211 15.4059 8.75091 14.702 8.75091 14.702L7.3407 13.8221L6.25899 15.1666Z" fill="#868686"/>
<path d="M1.90872 7.64626C1.90872 7.64626 1.6553 7.05261 0.939636 7.23798C0.310791 7.40223 -0.0294425 8.35019 0.14654 8.79132C0.322523 9.23245 0.817621 9.42955 0.817621 9.42955L1.90872 7.64626Z" fill="#151413"/>
<path d="M2.48122 0.86271C2.30523 0.881481 2.01897 2.04062 1.18129 1.87637C0.561832 1.75436 0.6815 0.886174 1.46756 0.456776C2.17149 0.0719603 2.62435 0.224479 3.05375 0.379344C3.68729 0.606948 4.32082 1.30384 4.62821 2.11805C4.93559 2.93227 5.30164 3.95531 5.45415 5.15669C5.60902 6.37918 5.51985 6.42377 5.51985 6.42377L4.92621 6.46835C4.92621 6.46835 5.03649 6.16096 4.81592 4.82819C4.69156 4.07498 4.38653 3.12702 4.11199 2.42778C3.80226 1.64642 3.16403 0.787624 2.48122 0.86271Z" fill="#5D6265"/>
<path d="M7.49087 1.67927C7.32897 1.65112 6.91834 2.21895 6.34112 1.88576C5.8296 1.59011 6.07128 0.829864 6.83152 0.754778C7.31724 0.705502 7.92966 1.05512 8.23 1.36016C8.69225 1.83414 9.03483 2.6155 9.18735 3.4086C9.3469 4.2275 9.32813 4.99479 8.99025 6.107C8.62655 7.29665 8.19715 7.79174 8.19715 7.79174L7.7349 7.31776C7.7349 7.31776 8.05402 6.87663 8.3966 5.93102C8.64532 5.24117 8.79315 4.47857 8.62889 3.58458C8.47403 2.75629 7.95312 1.75671 7.49087 1.67927Z" fill="#5D6265"/>
<path d="M2.53754 6.71003C1.33147 7.27318 -0.231255 9.10105 0.0479708 11.2035C0.268536 12.8554 1.4793 14.5729 3.814 15.1009C6.14871 15.6288 7.58004 14.8803 7.58004 14.8803L8.74621 14.7043L9.75988 16.1146L12.7774 16.1357L14.7601 15.3215C14.7601 15.3215 16.1422 17.2878 16.5974 17.98C17.0526 18.6745 18.5637 19.897 18.5637 19.897C18.5637 19.897 18.972 20.202 19.392 20.4367C19.7885 20.6573 21.6939 21.5818 23.4279 21.6639C26.4595 21.8094 27.3722 20.9646 27.5646 20.723C27.6585 20.6033 27.7594 20.1317 27.7993 19.8806C27.8298 19.6835 28.1536 17.8181 27.9096 16.3562C27.7125 15.1666 27.0719 13.0525 24.6715 10.9383C22.2711 8.82417 19.0119 8.29623 16.9634 9.48587C15.0323 10.6075 14.3659 12.2382 14.3659 12.2382C14.3659 12.2382 13.7488 10.6051 12.0758 10.3892C10.7102 10.2133 10.1165 10.9172 10.1165 10.9172C10.1165 10.9172 10.2479 7.94426 7.25388 6.59975C5.06465 5.62129 3.19689 6.40265 2.53754 6.71003Z" fill="#5D6265"/>
<path d="M11.2358 10.8937C10.5764 11.0721 10.3113 11.7971 10.553 12.2382C10.7947 12.6794 11.2522 12.86 11.7637 12.7216C12.4254 12.5456 12.6882 11.952 12.5334 11.5108C12.3808 11.0721 11.8083 10.7412 11.2358 10.8937Z" fill="#AFAFAE"/>
<path d="M16.9165 11.9308C17.2239 12.548 18.139 12.5644 18.9861 12.0411C19.9106 11.4686 19.9552 10.6544 19.6243 10.2578C19.1691 9.71111 18.2376 9.79559 17.665 10.1687C17.0925 10.5418 16.5153 11.126 16.9165 11.9308Z" fill="#AFAFAE"/>
<path d="M3.63801 8.74673C3.2884 9.33803 3.19454 10.3728 4.07914 10.7623C5.09281 11.2081 5.7193 10.4807 5.9516 9.90352C6.17217 9.35211 6.20736 8.41588 5.42365 8.09677C4.6024 7.76357 3.98529 8.16247 3.63801 8.74673Z" fill="#0A0A0A"/>
<path d="M0.951355 11.654C0.981858 11.9637 0.951355 12.1608 0.775372 12.2805C0.557153 12.4306 0.383517 12.3556 0.383517 12.3556C0.383517 12.3556 0.0855192 12.0669 0.015126 11.4874C-0.0247634 11.1659 0.0268583 10.6943 0.0268583 10.6943C0.0268583 10.6943 0.89504 11.0932 0.951355 11.654Z" fill="#44484E"/>
<path d="M9.3868 13.1745C9.53463 13.2237 9.28825 14.7114 9.41965 14.9413C9.55105 15.1736 10.5272 15.8001 11.8646 15.6359C13.2021 15.4716 13.7981 14.6363 14.0116 14.167C14.1477 13.8714 14.2768 13.3903 14.3753 13.3739C14.4739 13.3575 15.1684 14.465 15.6471 15.0587C16.1258 15.6523 16.4238 16.1333 17.3811 17.0742C18.3385 18.0152 19.5774 18.7426 19.5774 18.7426C19.5774 18.7426 19.3193 19.0687 19.1104 19.3268C18.8993 19.5849 18.6153 19.9322 18.6153 19.9322C18.6153 19.9322 17.1089 18.7918 16.3581 17.8275C15.626 16.8865 14.8563 15.9503 14.739 16.1685C14.6804 16.2765 15.1825 16.9663 15.3913 17.3488C15.6893 17.8932 16.0108 18.4234 16.1352 18.7121C16.2548 18.9913 16.7663 20.3006 17.0198 21.157C17.184 21.7178 17.2896 22.3889 17.3342 22.4288C17.4585 22.5368 18.2423 23.304 18.4417 23.4847C18.6388 23.6654 19.0025 24.0619 18.7397 24.3435C18.4746 24.6251 17.8973 24.2027 17.7659 24.1042C17.6345 24.0056 16.3628 23.1703 16.2126 22.9896C16.0648 22.8089 15.8465 21.7789 15.7503 21.387C15.6424 20.9482 15.0065 19.4371 14.908 19.1415C14.8094 18.8435 14.2134 17.8087 14.0492 17.5811C13.7934 17.2268 13.6034 16.7551 13.2068 16.8701C13.0097 16.9288 12.8361 16.9616 12.6695 17.0344C12.6366 17.2502 12.6108 20.1645 12.5615 20.4297C12.5123 20.6948 12.3644 22.8418 12.3809 23.0389C12.3973 23.236 13.3382 24.4749 13.4555 24.6251C13.5705 24.7729 13.6034 25.0709 13.4063 25.2352C13.2092 25.3994 12.6624 25.3009 12.5146 25.1859C12.3668 25.0709 11.3907 24.0948 11.3085 23.8156C11.2264 23.534 11.2428 20.9247 11.2428 20.4954C11.2428 20.066 11.3414 17.1916 11.2757 17.0602C11.1771 17.0437 11.0035 17.0602 10.4427 16.9452C10.1212 16.8795 9.85609 16.7223 9.75754 16.7129C9.70826 16.8044 8.84947 18.8599 8.68287 19.4723C8.51862 20.0824 7.82407 23.1398 7.74195 23.2876C7.65982 23.4354 6.99813 24.0385 6.27308 24.2778C5.89296 24.4022 4.73616 24.6908 4.50621 24.3928C4.27391 24.0948 5.15148 23.5011 5.61373 23.2524C6.07598 23.0037 6.62035 22.6752 6.6884 22.6071C6.7541 22.5414 7.26562 19.5849 7.33367 19.2377C7.40172 18.8904 8.50689 16.2647 8.49046 16.1497C7.97894 15.7039 7.54954 14.9108 7.54954 14.9108C7.54954 14.9108 8.18543 14.6621 8.64767 14.2327C9.01137 13.8807 9.3868 13.1745 9.3868 13.1745Z" fill="#4D4D4D"/>
<path d="M20.3259 19.2142C20.3259 19.2142 20.0091 19.6413 19.8073 19.8923C19.5492 20.2114 19.3169 20.4039 19.3169 20.4039C19.3169 20.4039 20.4338 20.9506 21.1026 21.1899C22.1397 21.5583 22.7756 21.5982 22.7756 21.5982C22.7756 21.5982 23.0924 21.2228 23.2918 20.9811C23.5569 20.662 23.7752 20.3194 23.7752 20.3194C23.7752 20.3194 22.6489 20.1833 21.8581 19.9111C20.7975 19.5498 20.3259 19.2142 20.3259 19.2142Z" fill="#4D4D4D"/>
<path d="M24.7536 20.4578C24.7536 20.4578 24.4556 20.8989 24.2468 21.1969C24.0825 21.4316 23.8385 21.6709 23.8385 21.6709C23.8385 21.6709 25.4364 21.7202 26.2905 21.448C26.7598 21.2978 27.3347 21.0444 27.5435 20.7699C27.696 20.5728 27.8181 19.7468 27.8181 19.7468C27.8181 19.7468 27.3065 20.3076 26.2765 20.4179C25.5092 20.5024 24.7536 20.4578 24.7536 20.4578Z" fill="#4D4D4D"/>
<path d="M23.7775 20.3194C23.7775 20.3194 23.8831 20.3334 24.2304 20.3874C24.7067 20.4601 24.763 20.4484 24.763 20.4484C24.763 20.4484 25.826 18.6557 26.3328 17.1376C26.856 15.5655 26.91 13.6367 26.91 13.6367C26.91 13.6367 26.6284 13.1745 26.5181 13.0102C26.4079 12.846 26.1333 12.4916 26.1333 12.4916C26.1333 12.4916 25.955 15.2065 25.4059 16.9076C24.7513 18.9397 23.7775 20.3194 23.7775 20.3194Z" fill="#838383"/>
<path d="M19.5774 18.7402C19.5774 18.7402 21.187 16.4243 21.7408 14.7935C21.9895 14.0614 22.3438 12.5879 22.4353 11.9614C22.6207 10.6732 22.501 9.5422 22.501 9.5422C22.501 9.5422 22.7427 9.62901 23.0384 9.79092C23.219 9.88947 23.4349 10.0396 23.4349 10.0396C23.4349 10.0396 23.5898 10.9336 23.3434 12.2852C23.1533 13.334 22.8835 14.3759 22.5433 15.3402C22.0224 16.8091 20.3329 19.2213 20.3329 19.2213L19.5774 18.7402Z" fill="#838383"/>
</svg>
