<svg viewBox="0 0 562 449" fill="none" xmlns="http://www.w3.org/2000/svg">
<path d="M0.00372791 51.181H276.005V244.937H0.00372791V51.181Z" fill="white"/>
<path d="M0.00372791 51.181H276.005V65.9308H0.00372791V51.181Z" fill="#AEB9C8"/>
<path d="M8.57387 60.9792C9.8259 60.9792 10.8409 59.8942 10.8409 58.5559C10.8409 57.2176 9.8259 56.1326 8.57387 56.1326C7.32184 56.1326 6.30687 57.2176 6.30687 58.5559C6.30687 59.8942 7.32184 60.9792 8.57387 60.9792Z" fill="#F12929"/>
<path d="M16.1788 60.9792C17.4308 60.9792 18.4458 59.8942 18.4458 58.5559C18.4458 57.2176 17.4308 56.1326 16.1788 56.1326C14.9267 56.1326 13.9117 57.2176 13.9117 58.5559C13.9117 59.8942 14.9267 60.9792 16.1788 60.9792Z" fill="#F1E029"/>
<path d="M23.7836 60.9792C25.0357 60.9792 26.0506 59.8942 26.0506 58.5559C26.0506 57.2176 25.0357 56.1326 23.7836 56.1326C22.5316 56.1326 21.5166 57.2176 21.5166 58.5559C21.5166 59.8942 22.5316 60.9792 23.7836 60.9792Z" fill="#6AF129"/>
<path d="M156.765 109.696H245.628V120.584H156.765V109.696Z" fill="#AEB9C8"/>
<path d="M150.394 125.46H252V136.349H150.394V125.46Z" fill="#AEB9C8"/>
<path d="M157.182 149.084H245.212V154.787H157.182V149.084Z" fill="#AEB9C8"/>
<path d="M157.182 158.196H245.212V163.9H157.182V158.196Z" fill="#AEB9C8"/>
<path d="M157.182 167.308H212.955V173.012H157.182V167.308Z" fill="#AEB9C8"/>
<path d="M61.4404 162.622H109.116V241.56H61.4404V162.622Z" fill="#AEB9C8" stroke="white" stroke-width="3.76837" stroke-linecap="round" stroke-linejoin="round"/>
<path d="M7.63511 121.305H55.3104V200.243H7.63511V121.305Z" fill="#AEB9C8" stroke="white" stroke-width="2.21366" stroke-linecap="round" stroke-linejoin="round"/>
<path d="M60.921 77.1315H108.596V156.07H60.921V77.1315Z" fill="#AEB9C8" stroke="white" stroke-width="2.21366" stroke-linecap="round" stroke-linejoin="round"/>
<path d="M173.31 186.324H229.083V202.895H173.31V186.324Z" fill="#AEB9C8" stroke="white" stroke-width="2.21366" stroke-linecap="round" stroke-linejoin="round"/>
<path d="M285.998 0H561.999V193.755H285.998V0Z" fill="white"/>
<path d="M285.998 0H561.999V14.7497H285.998V0Z" fill="#AEB9C8"/>
<path d="M294.568 9.79813C295.82 9.79813 296.835 8.7132 296.835 7.37486C296.835 6.03653 295.82 4.9516 294.568 4.9516C293.316 4.9516 292.301 6.03653 292.301 7.37486C292.301 8.7132 293.316 9.79813 294.568 9.79813Z" fill="#F12929"/>
<path d="M302.173 9.79813C303.425 9.79813 304.44 8.7132 304.44 7.37486C304.44 6.03653 303.425 4.9516 302.173 4.9516C300.921 4.9516 299.906 6.03653 299.906 7.37486C299.906 8.7132 300.921 9.79813 302.173 9.79813Z" fill="#F1E029"/>
<path d="M309.778 9.79813C311.03 9.79813 312.045 8.7132 312.045 7.37486C312.045 6.03653 311.03 4.9516 309.778 4.9516C308.526 4.9516 307.511 6.03653 307.511 7.37486C307.511 8.7132 308.526 9.79813 309.778 9.79813Z" fill="#6AF129"/>
<path d="M486.697 95.7596C492.367 95.7596 496.964 90.9081 496.964 84.9235C496.964 78.9389 492.367 74.0874 486.697 74.0874C481.026 74.0874 476.429 78.9389 476.429 84.9235C476.429 90.9081 481.026 95.7596 486.697 95.7596Z" fill="#AEB9C8"/>
<path d="M501.601 74.0874H554.325V79.4031H501.601V74.0874Z" fill="#AEB9C8"/>
<path d="M501.601 93.15H537.649V95.7597H501.601V93.15Z" fill="#AEB9C8"/>
<path d="M501.601 89.4831H545.296V92.0928H501.601V89.4831Z" fill="#AEB9C8"/>
<path d="M501.601 85.8162H544.192V88.4259H501.601V85.8162Z" fill="#AEB9C8"/>
<path d="M501.601 82.1493H546.408V84.759H501.601V82.1493Z" fill="#AEB9C8"/>
<path d="M486.697 125.855C492.367 125.855 496.964 121.004 496.964 115.019C496.964 109.035 492.367 104.183 486.697 104.183C481.026 104.183 476.429 109.035 476.429 115.019C476.429 121.004 481.026 125.855 486.697 125.855Z" fill="#AEB9C8"/>
<path d="M501.601 104.183H554.325V109.499H501.601V104.183Z" fill="#AEB9C8"/>
<path d="M501.601 123.246H537.649V125.855H501.601V123.246Z" fill="#AEB9C8"/>
<path d="M501.601 119.579H545.296V122.189H501.601V119.579Z" fill="#AEB9C8"/>
<path d="M501.601 115.912H544.192V118.522H501.601V115.912Z" fill="#AEB9C8"/>
<path d="M501.601 112.245H546.408V114.855H501.601V112.245Z" fill="#AEB9C8"/>
<path d="M486.697 156.198C492.367 156.198 496.964 151.347 496.964 145.362C496.964 139.377 492.367 134.526 486.697 134.526C481.026 134.526 476.429 139.377 476.429 145.362C476.429 151.347 481.026 156.198 486.697 156.198Z" fill="#AEB9C8"/>
<path d="M501.601 134.526H554.325V139.842H501.601V134.526Z" fill="#AEB9C8"/>
<path d="M501.601 153.589H537.649V156.198H501.601V153.589Z" fill="#AEB9C8"/>
<path d="M501.601 149.922H545.296V152.531H501.601V149.922Z" fill="#AEB9C8"/>
<path d="M501.601 146.255H544.192V148.864H501.601V146.255Z" fill="#AEB9C8"/>
<path d="M501.601 142.588H546.408V145.198H501.601V142.588Z" fill="#AEB9C8"/>
<path d="M486.697 186.097C492.367 186.097 496.964 181.246 496.964 175.261C496.964 169.277 492.367 164.425 486.697 164.425C481.026 164.425 476.429 169.277 476.429 175.261C476.429 181.246 481.026 186.097 486.697 186.097Z" fill="#AEB9C8"/>
<path d="M501.601 164.425H554.325V169.741H501.601V164.425Z" fill="#AEB9C8"/>
<path d="M501.601 183.488H537.649V186.097H501.601V183.488Z" fill="#AEB9C8"/>
<path d="M501.601 179.821H545.296V182.43H501.601V179.821Z" fill="#AEB9C8"/>
<path d="M501.601 176.154H544.192V178.763H501.601V176.154Z" fill="#AEB9C8"/>
<path d="M501.601 172.487H546.408V175.097H501.601V172.487Z" fill="#AEB9C8"/>
<path d="M294.919 45.883H468.226V152.729H294.919V45.883Z" fill="#AEB9C8"/>
<path d="M294.919 157.599H329.475V185.941H294.919V157.599Z" fill="#AEB9C8"/>
<path d="M333.454 157.599H368.01V185.941H333.454V157.599Z" fill="#AEB9C8"/>
<path d="M371.989 157.599H406.546V185.941H371.989V157.599Z" fill="#AEB9C8"/>
<path d="M410.524 157.599H445.081V185.941H410.524V157.599Z" fill="#AEB9C8"/>
<path d="M449.059 157.599H468.226V185.941H449.059V157.599Z" fill="#AEB9C8"/>
<path d="M476.429 25.0444H554.325V63.2347H476.429V25.0444Z" fill="#AEB9C8"/>
<path d="M294.919 25.0444H362.679V40.3474H294.919V25.0444Z" fill="#AEB9C8"/>
<path d="M0.00371838 255.618H276.005V449.373H0.00371838V255.618Z" fill="white"/>
<path d="M0.00371838 255.618H276.005V270.368H0.00371838V255.618Z" fill="#AEB9C8"/>
<path d="M8.57386 265.416C9.82589 265.416 10.8409 264.331 10.8409 262.993C10.8409 261.654 9.82589 260.569 8.57386 260.569C7.32183 260.569 6.30686 261.654 6.30686 262.993C6.30686 264.331 7.32183 265.416 8.57386 265.416Z" fill="#F12929"/>
<path d="M16.1787 265.416C17.4308 265.416 18.4458 264.331 18.4458 262.993C18.4458 261.654 17.4308 260.569 16.1787 260.569C14.9267 260.569 13.9117 261.654 13.9117 262.993C13.9117 264.331 14.9267 265.416 16.1787 265.416Z" fill="#F1E029"/>
<path d="M23.7836 265.416C25.0356 265.416 26.0506 264.331 26.0506 262.993C26.0506 261.654 25.0356 260.569 23.7836 260.569C22.5316 260.569 21.5166 261.654 21.5166 262.993C21.5166 264.331 22.5316 265.416 23.7836 265.416Z" fill="#6AF129"/>
<path d="M8.01738 301.315H68.0531V449.373H8.01738V301.315Z" fill="#AEB9C8"/>
<path d="M74.2274 301.315H134.263V378.18H74.2274V301.315Z" fill="#AEB9C8"/>
<path d="M74.2274 384.422H134.263V449.373H74.2274V384.422Z" fill="#AEB9C8"/>
<path d="M140.437 301.315H200.473V360.356H140.437V301.315Z" fill="#AEB9C8"/>
<path d="M140.437 366.762H200.473V419.181H140.437V366.762Z" fill="#AEB9C8"/>
<path d="M140.437 425.587H200.473V449.373H140.437V425.587Z" fill="#AEB9C8"/>
<path d="M206.647 301.315H266.683V396.715H206.647V301.315Z" fill="#AEB9C8"/>
<path d="M206.647 403.042H266.683V449.373H206.647V403.042Z" fill="#AEB9C8"/>
<path d="M18.4458 296.381C24.4659 296.381 29.3462 291.662 29.3462 285.841C29.3462 280.02 24.4659 275.301 18.4458 275.301C12.4256 275.301 7.5453 280.02 7.5453 285.841C7.5453 291.662 12.4256 296.381 18.4458 296.381Z" fill="#AEB9C8"/>
<path d="M38.0352 278.951H150.394V292.731H38.0352V278.951Z" fill="#AEB9C8"/>
<path d="M185.069 281.049H266.683V289.793H185.069V281.049Z" fill="#AEB9C8"/>
<path d="M285.998 204.437H561.999V398.192H285.998V204.437Z" fill="white"/>
<path d="M285.998 204.437H561.999V219.187H285.998V204.437Z" fill="#AEB9C8"/>
<path d="M294.568 214.235C295.82 214.235 296.835 213.15 296.835 211.812C296.835 210.473 295.82 209.388 294.568 209.388C293.316 209.388 292.301 210.473 292.301 211.812C292.301 213.15 293.316 214.235 294.568 214.235Z" fill="#F12929"/>
<path d="M302.173 214.235C303.425 214.235 304.44 213.15 304.44 211.812C304.44 210.473 303.425 209.388 302.173 209.388C300.921 209.388 299.906 210.473 299.906 211.812C299.906 213.15 300.921 214.235 302.173 214.235Z" fill="#F1E029"/>
<path d="M309.778 214.235C311.03 214.235 312.045 213.15 312.045 211.812C312.045 210.473 311.03 209.388 309.778 209.388C308.526 209.388 307.511 210.473 307.511 211.812C307.511 213.15 308.526 214.235 309.778 214.235Z" fill="#6AF129"/>
<path d="M441.289 232.485H540.229V370.145H441.289V232.485Z" fill="#AEB9C8"/>
<path d="M318.12 272.479H402.852V282.861H318.12V272.479Z" fill="#AEB9C8"/>
<path d="M312.045 287.51H408.927V297.892H312.045V287.51Z" fill="#AEB9C8"/>
<path d="M318.517 310.035H402.455V315.474H318.517V310.035Z" fill="#AEB9C8"/>
<path d="M318.517 318.724H402.455V324.163H318.517V318.724Z" fill="#AEB9C8"/>
<path d="M318.517 327.413H371.698V332.852H318.517V327.413Z" fill="#AEB9C8"/>
</svg>
