<svg width="67" height="19" viewBox="0 0 67 19" fill="none" xmlns="http://www.w3.org/2000/svg">
<path d="M0.645952 18V0.545454H4.33629V14.9574H11.8192V18H0.645952ZM29.6232 9.27273C29.6232 11.1761 29.2624 12.7955 28.5408 14.1307C27.8249 15.4659 26.8477 16.4858 25.609 17.1903C24.3761 17.8892 22.9897 18.2386 21.4499 18.2386C19.8988 18.2386 18.5067 17.8864 17.2738 17.1818C16.0408 16.4773 15.0664 15.4574 14.3505 14.1222C13.6346 12.7869 13.2766 11.1705 13.2766 9.27273C13.2766 7.36932 13.6346 5.75 14.3505 4.41477C15.0664 3.07955 16.0408 2.0625 17.2738 1.36364C18.5067 0.659091 19.8988 0.306818 21.4499 0.306818C22.9897 0.306818 24.3761 0.659091 25.609 1.36364C26.8477 2.0625 27.8249 3.07955 28.5408 4.41477C29.2624 5.75 29.6232 7.36932 29.6232 9.27273ZM25.8817 9.27273C25.8817 8.03977 25.6971 7 25.3278 6.15341C24.9641 5.30682 24.4499 4.66477 23.7852 4.22727C23.1204 3.78977 22.342 3.57102 21.4499 3.57102C20.5579 3.57102 19.7795 3.78977 19.1147 4.22727C18.4499 4.66477 17.9329 5.30682 17.5636 6.15341C17.1999 7 17.0181 8.03977 17.0181 9.27273C17.0181 10.5057 17.1999 11.5455 17.5636 12.392C17.9329 13.2386 18.4499 13.8807 19.1147 14.3182C19.7795 14.7557 20.5579 14.9744 21.4499 14.9744C22.342 14.9744 23.1204 14.7557 23.7852 14.3182C24.4499 13.8807 24.9641 13.2386 25.3278 12.392C25.6971 11.5455 25.8817 10.5057 25.8817 9.27273ZM43.9308 6.1875C43.8114 5.77273 43.6438 5.40625 43.4279 5.08807C43.212 4.7642 42.9478 4.49148 42.6353 4.26989C42.3285 4.04261 41.9762 3.86932 41.5785 3.75C41.1864 3.63068 40.7518 3.57102 40.2745 3.57102C39.3825 3.57102 38.5984 3.79261 37.9222 4.23579C37.2518 4.67898 36.729 5.32386 36.354 6.17045C35.979 7.01136 35.7915 8.03977 35.7915 9.25568C35.7915 10.4716 35.9762 11.5057 36.3455 12.358C36.7148 13.2102 37.2376 13.8608 37.9137 14.3097C38.5898 14.7528 39.3881 14.9744 40.3086 14.9744C41.1438 14.9744 41.8569 14.8267 42.4478 14.5312C43.0444 14.2301 43.4989 13.8068 43.8114 13.2614C44.1296 12.7159 44.2887 12.071 44.2887 11.3267L45.0387 11.4375H40.5387V8.65909H47.8427V10.858C47.8427 12.392 47.5188 13.7102 46.8711 14.8125C46.2234 15.9091 45.3313 16.7557 44.195 17.3523C43.0586 17.9432 41.7575 18.2386 40.2915 18.2386C38.6552 18.2386 37.2177 17.8778 35.979 17.1562C34.7404 16.429 33.7745 15.3977 33.0813 14.0625C32.3938 12.7216 32.0501 11.1307 32.0501 9.28977C32.0501 7.875 32.2546 6.61364 32.6637 5.50568C33.0785 4.39205 33.658 3.44886 34.4023 2.67614C35.1467 1.90341 36.0131 1.31534 37.0018 0.911931C37.9904 0.508522 39.0614 0.306818 40.2148 0.306818C41.2035 0.306818 42.1239 0.451704 42.9762 0.741477C43.8285 1.02557 44.5842 1.42898 45.2433 1.9517C45.908 2.47443 46.4506 3.09659 46.8711 3.81818C47.2915 4.53409 47.5614 5.32386 47.6808 6.1875H43.9308ZM66.6545 9.27273C66.6545 11.1761 66.2937 12.7955 65.5721 14.1307C64.8562 15.4659 63.8789 16.4858 62.6403 17.1903C61.4073 17.8892 60.021 18.2386 58.4812 18.2386C56.93 18.2386 55.538 17.8864 54.305 17.1818C53.0721 16.4773 52.0977 15.4574 51.3817 14.1222C50.6658 12.7869 50.3079 11.1705 50.3079 9.27273C50.3079 7.36932 50.6658 5.75 51.3817 4.41477C52.0977 3.07955 53.0721 2.0625 54.305 1.36364C55.538 0.659091 56.93 0.306818 58.4812 0.306818C60.021 0.306818 61.4073 0.659091 62.6403 1.36364C63.8789 2.0625 64.8562 3.07955 65.5721 4.41477C66.2937 5.75 66.6545 7.36932 66.6545 9.27273ZM62.913 9.27273C62.913 8.03977 62.7283 7 62.359 6.15341C61.9954 5.30682 61.4812 4.66477 60.8164 4.22727C60.1516 3.78977 59.3732 3.57102 58.4812 3.57102C57.5891 3.57102 56.8107 3.78977 56.146 4.22727C55.4812 4.66477 54.9641 5.30682 54.5948 6.15341C54.2312 7 54.0494 8.03977 54.0494 9.27273C54.0494 10.5057 54.2312 11.5455 54.5948 12.392C54.9641 13.2386 55.4812 13.8807 56.146 14.3182C56.8107 14.7557 57.5891 14.9744 58.4812 14.9744C59.3732 14.9744 60.1516 14.7557 60.8164 14.3182C61.4812 13.8807 61.9954 13.2386 62.359 12.392C62.7283 11.5455 62.913 10.5057 62.913 9.27273Z" fill="black"/>
</svg>
