<svg
   viewBox="0 0 193.19255 89.371738"
   xmlns="http://www.w3.org/2000/svg"><defs
     id="defs1" /><g
     id="layer1"
     transform="translate(-13.475965,-5.6968219)"><g
       style="fill:none"
       id="g1"
       transform="matrix(-0.65227947,0.12521582,0.12521582,0.65227947,29.634406,76.805967)"><path
         d="m 6.25899,15.1666 c 0,0 -0.87992,0.8142 -1.16618,1.6308 -0.28627,0.8142 -0.76963,2.7969 -0.96908,2.9729 -0.19945,0.176 -0.8588,0.4834 -1.10048,0.5937 -0.24168,0.1102 -0.76963,0.2205 -0.76963,0.5936 0,0.3731 0.48336,0.3754 1.32104,0.2417 0.83768,-0.1338 1.14507,-0.176 1.29993,-0.3754 C 5.02945,20.6244 5.88825,17.499 6.01965,17.2995 6.15105,17.1024 6.39508,16.551 7.14359,15.9785 7.89211,15.4059 8.75091,14.702 8.75091,14.702 L 7.3407,13.8221 Z"
         fill="#868686"
         id="path1" /><path
         d="m 1.90872,7.64626 c 0,0 -0.25342,-0.59365 -0.969084,-0.40828 C 0.310791,7.40223 -0.0294425,8.35019 0.14654,8.79132 0.322523,9.23245 0.817621,9.42955 0.817621,9.42955 Z"
         fill="#151413"
         id="path2" /><path
         d="M 2.48122,0.86271 C 2.30523,0.881481 2.01897,2.04062 1.18129,1.87637 0.561832,1.75436 0.6815,0.886174 1.46756,0.456776 2.17149,0.0719603 2.62435,0.224479 3.05375,0.379344 3.68729,0.606948 4.32082,1.30384 4.62821,2.11805 4.93559,2.93227 5.30164,3.95531 5.45415,5.15669 5.60902,6.37918 5.51985,6.42377 5.51985,6.42377 L 4.92621,6.46835 c 0,0 0.11028,-0.30739 -0.11029,-1.64016 C 4.69156,4.07498 4.38653,3.12702 4.11199,2.42778 3.80226,1.64642 3.16403,0.787624 2.48122,0.86271 Z"
         fill="#5d6265"
         id="path3" /><path
         d="M 7.49087,1.67927 C 7.32897,1.65112 6.91834,2.21895 6.34112,1.88576 5.8296,1.59011 6.07128,0.829864 6.83152,0.754778 7.31724,0.705502 7.92966,1.05512 8.23,1.36016 8.69225,1.83414 9.03483,2.6155 9.18735,3.4086 9.3469,4.2275 9.32813,4.99479 8.99025,6.107 8.62655,7.29665 8.19715,7.79174 8.19715,7.79174 L 7.7349,7.31776 c 0,0 0.31912,-0.44113 0.6617,-1.38674 C 8.64532,5.24117 8.79315,4.47857 8.62889,3.58458 8.47403,2.75629 7.95312,1.75671 7.49087,1.67927 Z"
         fill="#5d6265"
         id="path4" /><path
         d="M 2.53754,6.71003 C 1.33147,7.27318 -0.231255,9.10105 0.0479708,11.2035 0.268536,12.8554 1.4793,14.5729 3.814,15.1009 6.14871,15.6288 7.58004,14.8803 7.58004,14.8803 l 1.16617,-0.176 1.01367,1.4103 3.01752,0.0211 1.9827,-0.8142 c 0,0 1.3821,1.9663 1.8373,2.6585 0.4552,0.6945 1.9663,1.917 1.9663,1.917 0,0 0.4083,0.305 0.8283,0.5397 0.3965,0.2206 2.3019,1.1451 4.0359,1.2272 3.0316,0.1455 3.9443,-0.6993 4.1367,-0.9409 0.0939,-0.1197 0.1948,-0.5913 0.2347,-0.8424 0.0305,-0.1971 0.3543,-2.0625 0.1103,-3.5244 -0.1971,-1.1896 -0.8377,-3.3037 -3.2381,-5.4179 -2.4004,-2.11413 -5.6596,-2.64207 -7.7081,-1.45243 -1.9311,1.12163 -2.5975,2.75233 -2.5975,2.75233 0,0 -0.6171,-1.6331 -2.2901,-1.849 -1.3656,-0.1759 -1.9593,0.528 -1.9593,0.528 0,0 0.1314,-2.97294 -2.86262,-4.31745 C 5.06465,5.62129 3.19689,6.40265 2.53754,6.71003 Z"
         fill="#5d6265"
         id="path5" /><path
         d="m 11.2358,10.8937 c -0.6594,0.1784 -0.9245,0.9034 -0.6828,1.3445 0.2417,0.4412 0.6992,0.6218 1.2107,0.4834 0.6617,-0.176 0.9245,-0.7696 0.7697,-1.2108 -0.1526,-0.4387 -0.7251,-0.7696 -1.2976,-0.6171 z"
         fill="#afafae"
         id="path6" /><path
         d="m 16.9165,11.9308 c 0.3074,0.6172 1.2225,0.6336 2.0696,0.1103 0.9245,-0.5725 0.9691,-1.3867 0.6382,-1.7833 -0.4552,-0.54669 -1.3867,-0.46221 -1.9593,-0.0891 -0.5725,0.3731 -1.1497,0.9573 -0.7485,1.7621 z"
         fill="#afafae"
         id="path7" /><path
         d="M 3.63801,8.74673 C 3.2884,9.33803 3.19454,10.3728 4.07914,10.7623 5.09281,11.2081 5.7193,10.4807 5.9516,9.90352 6.17217,9.35211 6.20736,8.41588 5.42365,8.09677 4.6024,7.76357 3.98529,8.16247 3.63801,8.74673 Z"
         fill="#0a0a0a"
         id="path8" /><path
         d="m 0.951355,11.654 c 0.030503,0.3097 0,0.5068 -0.175983,0.6265 -0.218219,0.1501 -0.391855,0.0751 -0.391855,0.0751 0,0 -0.2979978,-0.2887 -0.368391,-0.8682 -0.0398894,-0.3215 0.0117323,-0.7931 0.0117323,-0.7931 0,0 0.8681817,0.3989 0.9244967,0.9597 z"
         fill="#44484e"
         id="path9" /><path
         d="m 9.3868,13.1745 c 0.14783,0.0492 -0.09855,1.5369 0.03285,1.7668 0.1314,0.2323 1.10755,0.8588 2.44495,0.6946 1.3375,-0.1643 1.9335,-0.9996 2.147,-1.4689 0.1361,-0.2956 0.2652,-0.7767 0.3637,-0.7931 0.0986,-0.0164 0.7931,1.0911 1.2718,1.6848 0.4787,0.5936 0.7767,1.0746 1.734,2.0155 0.9574,0.941 2.1963,1.6684 2.1963,1.6684 0,0 -0.2581,0.3261 -0.467,0.5842 -0.2111,0.2581 -0.4951,0.6054 -0.4951,0.6054 0,0 -1.5064,-1.1404 -2.2572,-2.1047 -0.7321,-0.941 -1.5018,-1.8772 -1.6191,-1.659 -0.0586,0.108 0.4435,0.7978 0.6523,1.1803 0.298,0.5444 0.6195,1.0746 0.7439,1.3633 0.1196,0.2792 0.6311,1.5885 0.8846,2.4449 0.1642,0.5608 0.2698,1.2319 0.3144,1.2718 0.1243,0.108 0.9081,0.8752 1.1075,1.0559 0.1971,0.1807 0.5608,0.5772 0.298,0.8588 -0.2651,0.2816 -0.8424,-0.1408 -0.9738,-0.2393 -0.1314,-0.0986 -1.4031,-0.9339 -1.5533,-1.1146 -0.1478,-0.1807 -0.3661,-1.2107 -0.4623,-1.6026 -0.1079,-0.4388 -0.7438,-1.9499 -0.8423,-2.2455 -0.0986,-0.298 -0.6946,-1.3328 -0.8588,-1.5604 -0.2558,-0.3543 -0.4458,-0.826 -0.8424,-0.711 -0.1971,0.0587 -0.3707,0.0915 -0.5373,0.1643 -0.0329,0.2158 -0.0587,3.1301 -0.108,3.3953 -0.0492,0.2651 -0.1971,2.4121 -0.1806,2.6092 0.0164,0.1971 0.9573,1.436 1.0746,1.5862 0.115,0.1478 0.1479,0.4458 -0.0492,0.6101 -0.1971,0.1642 -0.7439,0.0657 -0.8917,-0.0493 -0.1478,-0.115 -1.1239,-1.0911 -1.2061,-1.3703 -0.0821,-0.2816 -0.0657,-2.8909 -0.0657,-3.3202 0,-0.4294 0.0986,-3.3038 0.0329,-3.4352 -0.0986,-0.0165 -0.2722,0 -0.833,-0.115 -0.3215,-0.0657 -0.58661,-0.2229 -0.68516,-0.2323 -0.04928,0.0915 -0.90807,2.147 -1.07467,2.7594 -0.16425,0.6101 -0.8588,3.6675 -0.94092,3.8153 -0.08213,0.1478 -0.74382,0.7509 -1.46887,0.9902 -0.38012,0.1244 -1.53692,0.413 -1.76687,0.115 -0.2323,-0.298 0.64527,-0.8917 1.10752,-1.1404 0.46225,-0.2487 1.00662,-0.5772 1.07467,-0.6453 0.0657,-0.0657 0.57722,-3.0222 0.64527,-3.3694 0.06805,-0.3473 1.17322,-2.973 1.15679,-3.088 -0.51152,-0.4458 -0.94092,-1.2389 -0.94092,-1.2389 0,0 0.63589,-0.2487 1.09813,-0.6781 0.3637,-0.352 0.73913,-1.0582 0.73913,-1.0582 z"
         fill="#4d4d4d"
         id="path10" /><path
         d="m 20.3259,19.2142 c 0,0 -0.3168,0.4271 -0.5186,0.6781 -0.2581,0.3191 -0.4904,0.5116 -0.4904,0.5116 0,0 1.1169,0.5467 1.7857,0.786 1.0371,0.3684 1.673,0.4083 1.673,0.4083 0,0 0.3168,-0.3754 0.5162,-0.6171 0.2651,-0.3191 0.4834,-0.6617 0.4834,-0.6617 0,0 -1.1263,-0.1361 -1.9171,-0.4083 -1.0606,-0.3613 -1.5322,-0.6969 -1.5322,-0.6969 z"
         fill="#4d4d4d"
         id="path11" /><path
         d="m 24.7536,20.4578 c 0,0 -0.298,0.4411 -0.5068,0.7391 -0.1643,0.2347 -0.4083,0.474 -0.4083,0.474 0,0 1.5979,0.0493 2.452,-0.2229 0.4693,-0.1502 1.0442,-0.4036 1.253,-0.6781 0.1525,-0.1971 0.2746,-1.0231 0.2746,-1.0231 0,0 -0.5116,0.5608 -1.5416,0.6711 -0.7673,0.0845 -1.5229,0.0399 -1.5229,0.0399 z"
         fill="#4d4d4d"
         id="path12" /><path
         d="m 23.7775,20.3194 c 0,0 0.1056,0.014 0.4529,0.068 0.4763,0.0727 0.5326,0.061 0.5326,0.061 0,0 1.063,-1.7927 1.5698,-3.3108 0.5232,-1.5721 0.5772,-3.5009 0.5772,-3.5009 0,0 -0.2816,-0.4622 -0.3919,-0.6265 -0.1102,-0.1642 -0.3848,-0.5186 -0.3848,-0.5186 0,0 -0.1783,2.7149 -0.7274,4.416 -0.6546,2.0321 -1.6284,3.4118 -1.6284,3.4118 z"
         fill="#838383"
         id="path13" /><path
         d="m 19.5774,18.7402 c 0,0 1.6096,-2.3159 2.1634,-3.9467 0.2487,-0.7321 0.603,-2.2056 0.6945,-2.8321 0.1854,-1.2882 0.0657,-2.4192 0.0657,-2.4192 0,0 0.2417,0.08681 0.5374,0.24872 0.1806,0.09855 0.3965,0.24868 0.3965,0.24868 0,0 0.1549,0.894 -0.0915,2.2456 -0.1901,1.0488 -0.4599,2.0907 -0.8001,3.055 -0.5209,1.4689 -2.2104,3.8811 -2.2104,3.8811 z"
         fill="#838383"
         id="path14" /></g><path
         class="lost-line"
       style="fill:none;stroke-linecap:round;stroke-dasharray:2, 4;stroke-dashoffset:0;stroke-opacity:1"
       d="m 39.018503,84.944722 c 0,0 19.665601,-2.66201 26.510186,-12.688917 C 72.373275,62.228901 75.048794,50.598252 72.295522,39.468247 69.542249,28.338243 68.748078,8.0796994 44.437789,11.446614 c -24.310293,3.366914 -5.573115,39.839115 32.310406,9.542481 37.883515,-30.2966357 48.475395,-6.47987 48.243815,3.251122 -0.23158,9.730991 -30.739665,29.918578 -25.434494,45.311541 5.305164,15.392964 30.848184,20.864743 42.415064,13.507289 11.56688,-7.357454 24.57808,-21.515388 23.71384,-35.754432 -0.86424,-14.239044 15.17353,-30.281532 30.57689,-29.158854"
       id="path15" /><g
       id="g19"
       transform="rotate(6.6218332,187.27988,39.984272)"><g
         id="g18"><path
         class="lost-line"
           style="fill:none;stroke-width:1;stroke-linecap:round;stroke-dasharray:none;stroke-opacity:1"
           d="M 189.17934,10.942082 202.17556,24.93873"
           id="path17" /></g><path
           class="lost-line"
         style="fill:none;stroke-width:1;stroke-linecap:round;stroke-dasharray:none;stroke-opacity:1"
         d="M 188.32002,23.982472 203.03488,11.89834"
         id="path18" /></g></g></svg>
